<?xml version="1.0" standalone="no"?>
<!DOCTYPE svg PUBLIC "-//W3C//DTD SVG 20010904//EN"
 "http://www.w3.org/TR/2001/REC-SVG-20010904/DTD/svg10.dtd">
<svg version="1.0" xmlns="http://www.w3.org/2000/svg"
 width="200.000000pt" height="200.000000pt" viewBox="0 0 200.000000 200.000000"
 preserveAspectRatio="xMidYMid meet">
<metadata>
Created by potrace 1.11, written by Peter Selinger 2001-2013
</metadata>
<g transform="translate(0.000000,200.000000) scale(0.100000,-0.100000)"
fill="#000000" stroke="none">
<path d="M908 1895 c-2 -1 -22 -5 -46 -9 -318 -43 -604 -283 -712 -596 -163
-477 104 -1001 585 -1149 101 -31 127 -35 255 -36 134 0 179 6 275 36 65 20
224 93 235 108 3 4 28 23 55 43 136 99 255 275 311 463 24 80 27 107 28 240 0
127 -3 162 -22 229 -114 398 -446 661 -849 671 -61 2 -113 2 -115 0z"/>
</g>
</svg>
